HIERARCHY
ROOT joint_Root
{
	OFFSET 0.0 0.0 0.0
	CHANNELS 6 Xposition Yposition Zposition Zrotation Xrotation Yrotation 
	JOINT Hips
	{
		OFFSET -17.1583 93.1646 452.98
		CHANNELS 6 Xposition Yposition Zposition Zrotation Xrotation Yrotation 
		JOINT Spine
		{
			OFFSET 15.7357 0.0 0.0
			CHANNELS 6 Xposition Yposition Zposition Zrotation Xrotation Yrotation 
			JOINT Chest
			{
				OFFSET 8.98455 -0.406207 0.0
				CHANNELS 6 Xposition Yposition Zposition Zrotation Xrotation Yrotation 
				JOINT Neck
				{
					OFFSET 16.3773 0.0 0.0
					CHANNELS 6 Xposition Yposition Zposition Zrotation Xrotation Yrotation 
					JOINT Head
					{
						OFFSET 6.45672 0.0 0.0
						CHANNELS 6 Xposition Yposition Zposition Zrotation Xrotation Yrotation 
						End Site
						{
							OFFSET 0.0 0.0 0.0
						}
					}
				}
				JOINT Shoulder_L
				{
					OFFSET 12.9942 -0.242716 4.98039
					CHANNELS 6 Xposition Yposition Zposition Zrotation Xrotation Yrotation 
					JOINT UpperArm_L
					{
						OFFSET 5.34809 0.0 0.0
						CHANNELS 6 Xposition Yposition Zposition Zrotation Xrotation Yrotation 
						JOINT LowerArm_L
						{
							OFFSET 24.3286 1.87007e-05 0.0
							CHANNELS 6 Xposition Yposition Zposition Zrotation Xrotation Yrotation 
							JOINT Hand_L
							{
								OFFSET 22.2916 0.0 0.0
								CHANNELS 6 Xposition Yposition Zposition Zrotation Xrotation Yrotation 
								End Site
								{
									OFFSET 0.0 0.0 0.0
								}
							}
						}
					}
				}
				JOINT Shoulder_R
				{
					OFFSET 12.9945 -0.242716 -4.98039
					CHANNELS 6 Xposition Yposition Zposition Zrotation Xrotation Yrotation 
					JOINT UpperArm_R
					{
						OFFSET -5.34813 0.0 0.0
						CHANNELS 6 Xposition Yposition Zposition Zrotation Xrotation Yrotation 
						JOINT LowerArm_R
						{
							OFFSET -24.3289 0.000322201 0.0
							CHANNELS 6 Xposition Yposition Zposition Zrotation Xrotation Yrotation 
							JOINT Hand_R
							{
								OFFSET -22.2915 -0.000108084 0.0
								CHANNELS 6 Xposition Yposition Zposition Zrotation Xrotation Yrotation 
								End Site
								{
									OFFSET 0.0 0.0 0.0
								}
							}
						}
					}
				}
			}
		}
		JOINT UpperLeg_L
		{
			OFFSET -2.19248 -6.46944 0.0
			CHANNELS 6 Xposition Yposition Zposition Zrotation Xrotation Yrotation 
			JOINT LowerLeg_L
			{
				OFFSET 39.0811 0.0 -1.23785e-05
				CHANNELS 6 Xposition Yposition Zposition Zrotation Xrotation Yrotation 
				JOINT Foot_L
				{
					OFFSET 40.9854 0.0 -1.26872e-05
					CHANNELS 6 Xposition Yposition Zposition Zrotation Xrotation Yrotation 
					JOINT Toes_L
					{
						OFFSET 11.7543 0.0 0.0
						CHANNELS 6 Xposition Yposition Zposition Zrotation Xrotation Yrotation 
						End Site
						{
							OFFSET 0.0 0.0 0.0
						}
					}
				}
			}
		}
		JOINT UpperLeg_R
		{
			OFFSET -2.19251 6.46944 0.0
			CHANNELS 6 Xposition Yposition Zposition Zrotation Xrotation Yrotation 
			JOINT LowerLeg_R
			{
				OFFSET -39.0811 -0.00228153 -0.0401928
				CHANNELS 6 Xposition Yposition Zposition Zrotation Xrotation Yrotation 
				JOINT Foot_R
				{
					OFFSET -40.9854 0.0 0.0
					CHANNELS 6 Xposition Yposition Zposition Zrotation Xrotation Yrotation 
					JOINT Toes_R
					{
						OFFSET -11.7543 0.0 0.0
						CHANNELS 6 Xposition Yposition Zposition Zrotation Xrotation Yrotation 
						End Site
						{
							OFFSET 0.0 0.0 0.0
						}
					}
				}
			}
		}
	}
}
MOTION
Frames:	4
Frame Time:	0.0333333
0.000000 0.000000 0.000000 0.000000 0.000000 -0.000000 193.672000 93.846700 -148.486000 87.852800 3.676510 -0.004519 15.735700 0.000005 -0.000001 121.748000 86.250800 -120.553000 8.984550 -0.406207 -0.000000 -1.429340 3.848760 2.438160 16.377300 -0.000001 -0.000001 -0.221581 -1.326050 -1.575750 6.456720 -0.000001 -0.000000 8.966550 -3.776190 0.365187 12.994200 -0.242716 4.980390 -92.646400 6.886810 -68.919100 5.348090 -0.000007 -0.000001 -59.180300 -13.461000 16.617000 24.328600 0.000019 0.000005 4.843530 27.381900 -10.440000 22.291600 -0.000001 0.000005 -5.363510 5.019330 6.894370 12.994500 -0.242716 -4.980390 88.974300 3.342690 -72.930800 -5.348130 -0.000001 -0.000004 -67.124600 21.488900 -10.518200 -24.328900 0.000322 -0.000009 1.861860 2.388910 -37.988200 -22.291500 -0.000108 -0.000004 3.627900 5.337320 -0.999999 -2.192480 -6.469440 -0.000000 -174.538000 2.525690 -22.686800 39.081100 -0.000007 -0.000012 0.127395 -0.086195 55.916500 40.985400 -0.000006 -0.000013 -6.834080 10.842300 -49.759800 11.754300 -0.000000 0.000003 0.001813 0.040161 -14.947600 -2.192510 6.469440 -0.000001 -175.069000 -2.095960 178.665000 -39.081100 -0.002282 -0.040193 -0.006892 0.024593 22.544000 -40.985400 0.000008 0.000006 -4.898050 -4.293820 -68.121300 -11.754300 -0.000006 -0.000006 0.001912 0.124205 -11.536500
0.000000 0.000000 0.000000 0.000000 0.000000 -0.000000 194.118000 94.851100 -145.820000 88.762700 2.875030 -1.149940 15.735700 0.000005 -0.000001 127.519000 86.347100 -126.661000 8.984550 -0.406207 -0.000000 -2.005570 4.375160 1.793360 16.377300 -0.000001 -0.000001 -0.329483 -1.024050 -1.755410 6.456720 -0.000001 -0.000000 8.935370 -3.809160 0.442084 12.994200 -0.242716 4.980390 -92.423800 6.074720 -68.199300 5.348090 -0.000007 -0.000001 -54.691300 -16.437300 20.179800 24.328600 0.000019 0.000005 4.153390 23.650600 -10.260300 22.291600 -0.000001 0.000005 -1.009200 4.977540 7.778090 12.994500 -0.242716 -4.980390 89.167300 2.759270 -73.200800 -5.348130 -0.000001 -0.000004 -65.555000 22.299800 -12.556900 -24.328900 0.000322 -0.000009 1.306890 1.351400 -44.096200 -22.291500 -0.000108 -0.000004 2.670760 5.341330 -1.118410 -2.192480 -6.469440 -0.000000 -175.881000 1.954630 -23.976900 39.081100 -0.000007 -0.000012 0.086865 -0.087325 44.847700 40.985400 -0.000006 -0.000013 -6.674850 10.244700 -52.861100 11.754300 -0.000000 0.000003 0.001723 0.037336 -15.062200 -2.192510 6.469440 -0.000001 -176.875000 0.932469 -178.879000 -39.081100 -0.002282 -0.040193 -0.000241 0.010881 18.145300 -40.985400 0.000008 0.000006 -4.243530 -0.966354 -63.684500 -11.754300 -0.000006 -0.000006 0.002481 0.079324 -13.356200
0.000000 0.000000 0.000000 0.000000 0.000000 -0.000000 194.466000 95.300400 -143.147000 89.020800 2.036700 -2.069170 15.735700 0.000005 -0.000001 131.885000 86.388600 -131.093000 8.984550 -0.406207 -0.000000 -2.424480 4.750310 1.686140 16.377300 -0.000001 -0.000001 -0.661948 -0.706309 -1.926840 6.456720 -0.000001 -0.000000 8.853530 -3.680190 0.242345 12.994200 -0.242716 4.980390 -92.137300 5.333420 -68.125200 5.348090 -0.000007 -0.000001 -50.547900 -19.163500 23.358700 24.328600 0.000019 0.000005 3.260070 20.235200 -9.350150 22.291600 -0.000001 0.000005 4.288450 4.900020 9.346530 12.994500 -0.242716 -4.980390 89.344400 2.207540 -73.455600 -5.348130 -0.000001 -0.000004 -63.735100 22.618100 -14.877800 -24.328900 0.000322 -0.000009 0.938225 0.802845 -49.490000 -22.291500 -0.000108 -0.000004 2.044210 5.343710 -1.189820 -2.192480 -6.469440 -0.000000 -176.572000 0.364131 -23.096900 39.081100 -0.000007 -0.000012 0.050846 -0.088573 29.858000 40.985400 -0.000006 -0.000013 -6.393250 10.975500 -54.055700 11.754300 -0.000000 0.000003 0.001642 0.034941 -15.159400 -2.192510 6.469440 -0.000001 -177.958000 3.652630 -176.920000 -39.081100 -0.002282 -0.040193 0.004902 -0.005762 15.267100 -40.985400 0.000008 0.000006 -3.033340 2.382110 -60.579500 -11.754300 -0.000006 -0.000006 0.001288 0.025592 -15.535000
0.000000 0.000000 0.000000 0.000000 0.000000 -0.000000 194.649000 94.998800 -140.293000 88.460600 0.912443 -2.437130 15.735700 0.000005 -0.000001 134.034000 86.249800 -133.037000 8.984550 -0.406207 -0.000000 -2.421460 5.123190 2.101950 16.377300 -0.000001 -0.000001 -1.151510 -0.250032 -2.005420 6.456720 -0.000001 -0.000000 8.388830 -3.247910 0.100874 12.994200 -0.242716 4.980390 -91.907300 4.815600 -68.362700 5.348090 -0.000007 -0.000001 -46.998900 -20.937400 25.671600 24.328600 0.000019 0.000005 2.195270 16.782600 -7.560100 22.291600 -0.000001 0.000005 10.507700 4.774460 11.755700 12.994500 -0.242716 -4.980390 89.523700 1.635760 -73.763700 -5.348130 -0.000001 -0.000004 -62.040200 22.559300 -17.373800 -24.328900 0.000322 -0.000009 0.956355 0.693766 -54.080600 -22.291500 -0.000108 -0.000004 2.244440 5.346420 -1.269070 -2.192480 -6.469440 -0.000000 -176.700000 -2.799860 -19.913000 39.081100 -0.000007 -0.000012 0.027606 -0.131701 11.838800 40.985400 -0.000006 -0.000013 -7.848240 12.324100 -53.695100 11.754300 -0.000000 0.000003 0.001918 0.043716 -14.803400 -2.192510 6.469440 -0.000001 -178.001000 4.489060 -175.184000 -39.081100 -0.002282 -0.040193 0.004983 -0.006381 14.518400 -40.985400 0.000008 0.000006 -2.726530 4.338670 -59.989100 -11.754300 -0.000006 -0.000006 -0.000681 -0.010764 -17.011100
